<svg width="483" height="127" viewBox="0 0 483 127" fill="none" xmlns="http://www.w3.org/2000/svg">
<path d="M172.6 36.4H163.4V41.4H172.1V48H163.4V53.1H172.6V59.7H155.6V29.8H172.6V36.4Z" fill="white"/>
<path d="M189.9 29.8V53.1H199.2V59.7H182.1V29.8H189.9Z" fill="white"/>
<path d="M205.2 44.8C205.2 42.6 205.6 40.5 206.4 38.6C207.2 36.7 208.4 35 209.8 33.6C211.3 32.2 213 31.1 215 30.3C217 29.5 219.2 29.1 221.7 29.1C224.1 29.1 226.3 29.5 228.3 30.3C230.3 31.1 232.1 32.2 233.5 33.6C235 35 236.1 36.7 236.9 38.6C237.7 40.5 238.1 42.6 238.1 44.8C238.1 47 237.7 49.1 236.9 51C236.1 52.9 234.9 54.6 233.5 56C232 57.4 230.3 58.5 228.3 59.3C226.3 60.1 224.1 60.5 221.7 60.5C219.3 60.5 217.1 60.1 215 59.3C213 58.5 211.2 57.4 209.8 56C208.3 54.6 207.2 52.9 206.4 51C205.6 49 205.2 47 205.2 44.8ZM213.3 44.8C213.3 46 213.5 47.1 214 48.1C214.4 49.1 215.1 50 215.8 50.7C216.6 51.4 217.5 52 218.5 52.4C219.5 52.8 220.6 53 221.7 53C222.8 53 223.9 52.8 224.9 52.4C225.9 52 226.8 51.4 227.6 50.7C228.4 50 229 49.1 229.4 48.1C229.8 47.1 230.1 46 230.1 44.8C230.1 43.6 229.9 42.5 229.4 41.5C229 40.5 228.3 39.6 227.6 38.9C226.8 38.2 225.9 37.6 224.9 37.2C223.9 36.8 222.8 36.6 221.7 36.6C220.6 36.6 219.5 36.8 218.5 37.2C217.5 37.6 216.6 38.2 215.8 38.9C215 39.6 214.4 40.5 214 41.5C213.5 42.5 213.3 43.6 213.3 44.8ZM271.9 59.7H262.2L254.8 48.2V59.7H247V29.9H259.1C260.8 29.9 262.2 30.1 263.5 30.6C264.7 31.1 265.8 31.8 266.6 32.6C267.4 33.4 268 34.4 268.4 35.5C268.8 36.6 269 37.8 269 39.1C269 41.4 268.5 43.2 267.4 44.6C266.3 46 264.7 47 262.6 47.5L271.9 59.7ZM254.9 43.2H256.4C257.9 43.2 259.1 42.9 259.9 42.3C260.7 41.7 261.1 40.8 261.1 39.6C261.1 38.4 260.7 37.5 259.9 36.9C259.1 36.3 257.9 36 256.4 36H254.9V43.2ZM303.9 59.7H294.2L286.8 48.2V59.7H279V29.9H291.1C292.8 29.9 294.2 30.1 295.5 30.6C296.7 31.1 297.8 31.8 298.6 32.6C299.4 33.4 300 34.4 300.4 35.5C300.8 36.6 301 37.8 301 39.1C301 41.4 300.5 43.2 299.4 44.6C298.3 46 296.7 47 294.6 47.5L303.9 59.7ZM286.9 43.2H288.4C289.9 43.2 291.1 42.9 291.9 42.3C292.7 41.7 293.1 40.8 293.1 39.6C293.1 38.4 292.7 37.5 291.9 36.9C291.1 36.3 289.9 36 288.4 36H286.9V43.2Z" fill="white"/>
<path d="M318.9 29.8H311.1V59.6H318.9V29.8Z" fill="white"/>
<path d="M346.1 36.4H336.9V41.4H345.6V48H336.9V53.1H346.1V59.7H329.1V29.8H346.1V36.4Z" fill="white"/>
<path d="M366.901 36.4V59.7H359.201V36.4H352.801V29.8H373.301V36.4H366.901Z" fill="white"/>
<path d="M397.6 54.5H386.5L384.7 59.7H376.4L387.8 29.9H396.3L407.7 59.7H399.4L397.6 54.5ZM395.5 48.6L392 38.7L388.5 48.6H395.5Z" fill="white"/>
<path d="M172.6 73.4H163.4V78.4H172.1V84.9H163.4V90.1H172.6V96.7H155.6V66.8H172.6V73.4Z" fill="white"/>
<path d="M206.9 96.7H197.2L189.8 85.2V96.7H182V66.9H194.1C195.8 66.9 197.2 67.1 198.5 67.6C199.7 68.1 200.8 68.8 201.6 69.6C202.4 70.4 203 71.4 203.4 72.5C203.8 73.6 204 74.8 204 76.1C204 78.4 203.5 80.2 202.4 81.6C201.3 83 199.7 84 197.6 84.5L206.9 96.7ZM189.9 80.2H191.4C192.9 80.2 194.1 79.9 194.9 79.3C195.7 78.7 196.1 77.8 196.1 76.6C196.1 75.4 195.7 74.5 194.9 73.9C194.1 73.3 192.9 73 191.4 73H189.9V80.2ZM239 96.7H229.3L221.9 85.2V96.7H214.1V66.9H226.2C227.9 66.9 229.3 67.1 230.6 67.6C231.8 68.1 232.9 68.8 233.7 69.6C234.5 70.4 235.1 71.4 235.5 72.5C235.9 73.6 236.1 74.8 236.1 76.1C236.1 78.4 235.6 80.2 234.5 81.6C233.4 83 231.8 84 229.7 84.5L239 96.7ZM221.9 80.2H223.4C224.9 80.2 226.1 79.9 226.9 79.3C227.7 78.7 228.1 77.8 228.1 76.6C228.1 75.4 227.7 74.5 226.9 73.9C226.1 73.3 224.9 73 223.4 73H221.9V80.2Z" fill="white"/>
<path d="M263.1 73.4H253.9V78.4H262.6V84.9H253.9V90.1H263.1V96.7H246.2V66.8H263.1V73.4Z" fill="white"/>
<path d="M280.4 79.1L289.9 66.8H299.5L287.6 80.9L300.6 96.7H290.5L280.4 83.7V96.7H272.7V66.8H280.4V79.1Z" fill="white"/>
<path d="M326.201 91.5H315.1L313.301 96.7H305L316.401 66.9H324.901L336.301 96.7H328L326.201 91.5ZM324.201 85.6L320.701 75.7L317.201 85.6H324.201Z" fill="white"/>
<path d="M359.7 96.7L364.8 66.8H372.5L378.4 82.7L384.4 66.8H392.1L397.1 96.7H389.4L386.8 79.5L379.8 96.7H376.7L370 79.5L367.4 96.7H359.7Z" fill="white"/>
<path d="M424.3 91.5H413.2L411.4 96.7H403.1L414.5 66.9H423L434.4 96.7H426.1L424.3 91.5ZM422.2 85.6L418.7 75.7L415.2 85.6H422.2ZM466.5 96.7H456.8L449.4 85.2V96.7H441.7V66.9H453.7C455.4 66.9 456.8 67.1 458.1 67.6C459.3 68.1 460.4 68.8 461.2 69.6C462 70.4 462.6 71.4 463 72.5C463.4 73.6 463.6 74.8 463.6 76.1C463.6 78.4 463.1 80.2 462 81.6C460.9 83 459.3 84 457.2 84.5L466.5 96.7ZM449.4 80.2H450.9C452.4 80.2 453.6 79.9 454.4 79.3C455.2 78.7 455.6 77.8 455.6 76.6C455.6 75.4 455.2 74.5 454.4 73.9C453.6 73.3 452.4 73 450.9 73H449.4V80.2Z" fill="white"/>
<path d="M481.5 66.8H473.7V96.6H481.5V66.8Z" fill="white"/>
<path d="M144.901 0.4C141.601 1 129.701 15.3 103.901 21.4C78.6005 27.4 81.5005 48.1 109.401 59.3C110.501 59.8 110.601 60.8 110.601 61.1C110.601 61.5 110.501 62.4 109.401 62.8C109.001 62.9 108.601 63.1 108.101 63.2C103.701 64.4 96.9005 65.5 91.4005 66.3C89.2005 66.6 87.1005 67 85.5005 67.2C73.7005 69.3 50.8005 77.3 48.9005 92.5C47.5005 103.7 52.8005 123.4 98.2005 126.1C105.801 126.6 124.601 125.3 131.401 121.5C131.401 121.5 131.401 121.5 131.501 121.5C133.801 120.4 134.901 118.1 134.401 115.7C133.901 113.2 131.801 111.3 129.101 111.2L123.601 110.8C98.2005 109.2 65.9005 106.5 72.4005 84C73.4005 80.4 78.3005 75.5 94.7005 72.9C95.4005 72.8 113.101 69.9 121.501 66.5C123.001 65.9 124.101 65.2 125.101 64.6C125.401 64.4 125.701 64.2 126.101 64C129.501 62 131.301 59.5 131.501 56.6C131.901 50.2 124.001 44.2 118.301 39.8C116.501 38.5 114.901 37.2 114.201 36.5C112.901 35 112.401 33.5 112.801 32.2C113.201 30.9 114.601 29.8 116.601 29.3C126.001 26.8 143.701 23.2 149.801 9.2C150.001 8.7 152.401 4.6 150.501 1.8C149.901 0.9 148.701 0 146.601 0C146.001 0.2 145.501 0.3 144.901 0.4Z" fill="white"/>
<path d="M21.7004 23.4C20.2004 23.9 19.3004 25.2 19.4004 26.8C19.5004 28.4 20.7004 29.7 22.3004 30L25.7004 30.7C41.3004 33.8 61.1004 38 55.3004 51.4C54.4004 53.5 51.0004 56.2 40.6004 56.5C40.1004 56.5 28.9004 56.9 23.5004 58.3C22.5004 58.6 21.8004 58.9 21.1004 59.2C20.9004 59.3 20.7004 59.4 20.5004 59.5C18.2004 60.5 16.9004 61.9 16.6004 63.6C15.9004 67.5 20.2004 71.9 23.4004 75C24.4004 76 25.3004 76.9 25.6004 77.4C26.3004 78.4 26.5004 79.4 26.1004 80.2C25.7004 81 24.8004 81.5 23.5004 81.7C17.5004 82.5 6.20044 83.3 1.30044 91.5C1.10044 91.8 -0.699561 94.1 0.300439 96C0.700439 96.7 1.50044 97.6 3.60044 97.5C5.70044 97.4 14.2004 89.5 30.7004 87.8C46.8004 86.1 46.7004 73.1 30.4004 63.9C29.7004 63.5 29.8004 62.9 29.8004 62.7C29.8004 62.5 30.0004 61.9 30.7004 61.8C31.0004 61.7 31.2004 61.7 31.5004 61.7C34.3004 61.3 38.7004 61.2 42.1004 61.1C43.5004 61.1 44.8004 61 45.8004 61C53.3004 60.7 68.1004 57.5 70.5004 48.2C72.2004 41.4 70.5004 28.8 42.7004 23.4C40.1004 22.9 35.4004 22.5 30.9004 22.5C27.2004 22.3 23.8004 22.6 21.7004 23.4Z" fill="white"/>
<path d="M441.7 36.8C441.7 33.1 444.4 30.5 448.2 30.5C451.5 30.5 453.9 32.5 454.5 35.4H451.3C450.8 34.2 449.7 33.3 448.1 33.3C446 33.3 444.7 34.8 444.7 36.8C444.7 38.9 446.1 40.3 448.1 40.3C449.6 40.3 450.8 39.5 451.3 38.2H454.5C453.9 41.1 451.4 43.1 448.2 43.1C444.4 43.2 441.7 40.5 441.7 36.8Z" fill="white"/>
<path d="M459.301 30.7H456.301V42.9H459.301V30.7Z" fill="white"/>
<path d="M461.801 30.7H470.701V33.5H464.801V35.4H469.601V38H464.801V42.9H461.801V30.7Z" fill="white"/>
<path d="M472.5 30.7H477.301C480.601 30.7 482.1 32.5 482.1 35C482.1 37.5 480.601 39.3 477.301 39.3H475.5V42.9H472.5V30.7ZM477.301 36.5C478.601 36.5 479 35.9 479 35C479 34.1 478.601 33.5 477.301 33.5H475.5V36.5H477.301Z" fill="white"/>
<path d="M442.9 48H445.9V57.4H451.6V60.2H442.9V48Z" fill="white"/>
<path d="M455.2 48H458.3V52.6H462.8V48H465.9V60.2H462.8V55.4H458.3V60.2H455.2V48Z" fill="white"/>
<path d="M473.2 48H470.2V60.2H473.2V48Z" fill="white"/>
<path d="M480.6 48H477.6V60.2H480.6V48Z" fill="white"/>
</svg>
